<svg width="38" height="38" viewBox="0 0 38 38" fill="none" xmlns="http://www.w3.org/2000/svg">
<path d="M19 1.52002C28.6543 1.52002 36.48 9.34574 36.48 19C36.48 28.6543 28.6543 36.48 19 36.48C9.34574 36.48 1.52002 28.6543 1.52002 19C1.52002 9.34574 9.34574 1.52002 19 1.52002ZM25.0299 26.125C25.3513 25.1385 26.8577 15.3072 27.0439 13.3699C27.1001 12.7832 26.9147 12.3933 26.5514 12.2193C26.1121 12.008 25.4615 12.1137 24.7069 12.3857C23.6717 12.7589 10.4386 18.3776 9.67406 18.7029C8.94902 19.0107 8.2635 19.3466 8.2635 19.833C8.2635 20.175 8.46642 20.3673 9.02578 20.5671C9.60794 20.7746 11.074 21.2192 11.9396 21.4579C12.7733 21.6881 13.7226 21.4883 14.2546 21.1577C14.8185 20.8073 21.3264 16.4525 21.7938 16.071C22.2604 15.6895 22.6328 16.1781 22.2513 16.5604C21.8698 16.9419 17.4025 21.2777 16.8135 21.8781C16.0983 22.607 16.606 23.3624 17.0856 23.6649C17.6335 24.0099 21.5741 26.6532 22.1677 27.0773C22.7613 27.5014 23.3632 27.6937 23.9142 27.6937C24.4652 27.6937 24.7555 26.9679 25.0299 26.125Z" fill="white"/>
</svg>
